<?xml version="1.0" encoding="utf-8"?>
<!-- Generator: Adobe Illustrator 27.0.0, SVG Export Plug-In . SVG Version: 6.00 Build 0)  -->
<svg version="1.1" id="图层_1" xmlns="http://www.w3.org/2000/svg" xmlns:xlink="http://www.w3.org/1999/xlink" x="0px" y="0px"
	 viewBox="0 0 800 800" style="enable-background:new 0 0 800 800;" xml:space="preserve">
<style type="text/css">
	.st0{fill:url(#SVGID_1_);}
	.st1{fill:url(#SVGID_00000020370136922112399420000018253344330510046633_);}
	.st2{fill:url(#SVGID_00000062878133505478994210000003928164084183185086_);}
</style>
<g>
	<linearGradient id="SVGID_1_" gradientUnits="userSpaceOnUse" x1="287.3985" y1="405.5612" x2="514.5296" y2="405.5612">
		<stop  offset="0" style="stop-color:#815E26"/>
		<stop  offset="0.1508" style="stop-color:#B8964C"/>
		<stop  offset="0.2933" style="stop-color:#D3C27D"/>
		<stop  offset="0.567" style="stop-color:#BD994F"/>
		<stop  offset="0.6732" style="stop-color:#D1B770"/>
		<stop  offset="0.8184" style="stop-color:#DFDDA3"/>
		<stop  offset="1" style="stop-color:#B8964C"/>
	</linearGradient>
	<path class="st0" d="M290.25,489.62h58.89c2.03,0,3.67-2.32,3.67-5.2c0-2.87-1.64-5.19-3.67-5.19h-2.21
		c-10.29,0.7-15.19-5.88-14.7-19.74v-40.52h14.7c6.86,9.71,13.47,21.13,19.85,34.28c4.41,9.01,8.82,16.28,13.23,21.81
		c6.02,9.74,17.35,14.91,33.96,15.56l0.34,0.19l57.6-0.11c2.03,0,3.67-2.33,3.67-5.19v-0.01c0-2.87-1.65-5.19-3.68-5.19
		c-9.31,2.08-13.48-5.53-12.49-22.86v-42.59h29.4c7.52-0.55,11.84,3.42,12.97,11.9c0.52,3.94,2.96,6.8,5.8,6.8h0.2V380.6h-0.03
		c-2.91,0-5.3,3.02-5.83,7.06c-1.16,8.89-6.51,12.77-16.04,11.64h-26.46v-54.36c0-2.68,1.54-4.86,3.44-4.86h33.31
		c6.64-0.62,10.48,5.54,11.52,18.48c0.2,2.48,1.65,4.38,3.41,4.38c1.9,0,3.44-2.17,3.44-4.86V330.4c0-2.68-1.54-4.86-3.44-4.86
		h-87.94c-1.9,0-3.44,2.18-3.44,4.86v4.49h2.2c7.83-0.68,11.76,6.93,11.76,22.86v107c0,11.08-1.59,14.66-11.02,15.58l-13.44,0.75
		c-0.17-0.57-0.13-1.14,0.24-1.67l17.26-6.32c1.42-0.57,1.37-3.48-0.08-3.89c-14.3-4.14-29.1-19.34-34.14-29.44
		c-6.87-13.15-12.49-22.5-16.9-28.05c17.64-6.91,26.94-21.12,27.93-42.59c0-11.07-2.94-21.12-8.82-30.13
		c-8.34-12.47-25.73-18.7-52.19-18.7c-7.35,0.7-17.64,1.39-30.87,2.08c-4.38,0-10.7,0.69-18.95,2.05c-0.11,0.02-0.22,0.03-0.33,0.03
		h-2.13c-1.57,0-2.85,1.8-2.85,4.03v2.34c0,2.22,1.27,4.03,2.85,4.03h0.83c10.77,0,15.92,6.59,15.43,19.74V459.5
		c0.48,14.5-4.87,21.1-16.08,19.75c-0.06-0.01-0.12-0.01-0.18-0.01c-1.57,0-2.85,1.8-2.85,4.03v2.33
		C287.4,487.82,288.67,489.62,290.25,489.62z M332.23,331.71h10.29c21.56,1.4,32.58,14.2,33.08,38.44
		c0,26.33-12.01,39.13-36.02,38.44h-7.35V331.71z"/>
	
		<linearGradient id="SVGID_00000093156058497423372350000016872375165014608022_" gradientUnits="userSpaceOnUse" x1="240.9281" y1="405.5612" x2="561" y2="405.5612">
		<stop  offset="0" style="stop-color:#815E26"/>
		<stop  offset="0.1508" style="stop-color:#B8964C"/>
		<stop  offset="0.2933" style="stop-color:#D3C27D"/>
		<stop  offset="0.567" style="stop-color:#BD994F"/>
		<stop  offset="0.6732" style="stop-color:#D1B770"/>
		<stop  offset="0.8184" style="stop-color:#DFDDA3"/>
		<stop  offset="1" style="stop-color:#B8964C"/>
	</linearGradient>
	<path style="fill:url(#SVGID_00000093156058497423372350000016872375165014608022_);" d="M240.93,270.59v269.95H561V270.59H240.93z
		 M550.58,524.54H251.35V286.58h299.23V524.54z"/>
	
		<linearGradient id="SVGID_00000080202713132961616230000009099973925760288692_" gradientUnits="userSpaceOnUse" x1="255.127" y1="405.5621" x2="546.8011" y2="405.5621">
		<stop  offset="0" style="stop-color:#815E26"/>
		<stop  offset="0.1508" style="stop-color:#B8964C"/>
		<stop  offset="0.2933" style="stop-color:#D3C27D"/>
		<stop  offset="0.567" style="stop-color:#BD994F"/>
		<stop  offset="0.6732" style="stop-color:#D1B770"/>
		<stop  offset="0.8184" style="stop-color:#DFDDA3"/>
		<stop  offset="1" style="stop-color:#B8964C"/>
	</linearGradient>
	<path style="fill:url(#SVGID_00000080202713132961616230000009099973925760288692_);" d="M546.8,291.41H255.13v228.3H546.8V291.41z
		 M542.45,513.03H259.48V298.09h282.97V513.03z"/>
</g>
</svg>
